<?xml version="1.0" encoding="UTF-8"?>
<svg xmlns="http://www.w3.org/2000/svg" style="display:none">
  <!-- Minimal stroke icons in brand style -->
  <symbol id="vk" viewBox="0 0 24 24" fill="currentColor">
    <path d="M3 7c0-.6.4-1 1-1h16c.6 0 1 .4 1 1v10c0 .6-.4 1-1 1H4c-.6 0-1-.4-1-1V7zm2.3 2c.4 2 2.1 4.7 3.6 4.7.3 0 .4-.3.4-.7V11c0-.6.4-1 .8-1h.7c.6 0 .8.4.8 1v1.1c0 .4.2.7.5.7 1.5 0 3.3-2.7 3.7-4.7h2c-.5 2.7-3 6.7-5.7 6.7-1 0-1.6-.5-1.9-1-.4.6-1.1 1-2 1C6 15.7 3.6 11.7 3 9h2.3z"/>
  </symbol>

  <symbol id="telegram" viewBox="0 0 24 24" fill="currentColor">
    <path d="M21 4L3.7 11.2c-.5.2-.5.9.1 1.1l4.2 1.3 1.6 5c.2.6 1 .7 1.3.2l2.3-3.4 4.2 3.1c.5.4 1.3.1 1.4-.6L22 5c.2-.8-.5-1.4-1-1zM9.5 15.1l-.3 2.7.8-1.7 6.8-7.1-7.3 5.4z"/>
  </symbol>

  <symbol id="whatsapp" viewBox="0 0 24 24" fill="currentColor">
    <path d="M20 12a8 8 0 1 1-14.2 5L4 21l3.9-1.8A8 8 0 1 1 20 12zm-8-6.5a6.5 6.5 0 0 0-5.5 9.9l.2.4-1 2.2 2.3-1 .4.3A6.5 6.5 0 1 0 12 5.5zm3.7 9.2c-.2 0-1 0-1.8-.4-.9-.4-1.7-.9-2.3-1.6-.5-.5-1-1.2-1.3-1.9-.2-.5-.1-.8 0-1 .1-.2.4-.2.7-.2h.3c.1 0 .2 0 .3.2l.5 1c.1.2.1.3 0 .4l-.2.2-.2.2c-.1.1-.2.2 0 .5.2.3.6.8 1.1 1.2.6.5 1.1.8 1.4 1 .3.1.4.1.5 0l.5-.5c.2-.2.3-.2.5 0l.9.5c.2.1.4.2.4.4 0 .2-.1.7-.3 1-.2.3-.6.4-1 .4z"/>
  </symbol>

  <symbol id="phone" viewBox="0 0 24 24" fill="currentColor">
    <path d="M6.6 3.5c.3-.5.9-.7 1.5-.5l2.5.8c.6.2 1 .8.9 1.4l-.3 2.1c-.1.5-.4.9-.9 1.1l-.7.3c.6 1.4 1.7 2.8 3.1 3.9l.6-.6c.4-.4 1-.6 1.5-.5l2.1.3c.6.1 1.1.5 1.3 1.1l.8 2.5c.2.6 0 1.2-.5 1.5l-1.6 1.1c-.4.3-.9.3-1.3.2-2.7-.8-5-2.2-7-4.2-2-2-3.4-4.3-4.2-7 0-.4 0-.9.2-1.3l1.1-1.6z"/>
  </symbol>

  <symbol id="map" viewBox="0 0 24 24" fill="currentColor">
    <path d="M12 2a7 7 0 0 0-7 7c0 5.2 7 13 7 13s7-7.8 7-13a7 7 0 0 0-7-7zm0 9.5a2.5 2.5 0 1 1 0-5 2.5 2.5 0 0 1 0 5z"/>
  </symbol>
</svg>

